<svg xmlns="http://www.w3.org/2000/svg" xmlns:xlink="http://www.w3.org/1999/xlink" width="402.792" height="269.168" viewBox="0 0 302.094 201.876"><path fill="#4063D8" fill-opacity="1" fill-rule="nonzero" d="M 64.828125 55.710938 C 64.828125 65.34375 57.019531 73.144531 47.394531 73.144531 C 37.765625 73.144531 29.957031 65.34375 29.957031 55.710938 C 29.957031 46.082031 37.765625 38.277344 47.394531 38.277344 C 57.019531 38.277344 64.828125 46.082031 64.828125 55.710938"/><path fill="#000" fill-opacity="1" fill-rule="nonzero" d="M 59.765625 164.527344 C 59.765625 172.035156 58.921875 178.097656 57.230469 182.710938 C 55.542969 187.332031 53.140625 190.914062 50.023438 193.46875 C 46.910156 196.023438 43.175781 197.730469 38.820312 198.59375 C 34.464844 199.453125 29.621094 199.886719 24.292969 199.886719 C 17.082031 199.886719 11.5625 198.761719 7.738281 196.507812 C 3.90625 194.253906 1.992188 191.554688 1.992188 188.398438 C 1.992188 185.769531 3.058594 183.558594 5.199219 181.753906 C 7.339844 179.953125 10.210938 179.054688 13.816406 179.054688 C 16.519531 179.054688 18.679688 179.785156 20.292969 181.25 C 21.90625 182.710938 23.242188 184.160156 24.292969 185.585938 C 25.492188 187.160156 26.507812 188.210938 27.332031 188.738281 C 28.15625 189.261719 28.90625 189.527344 29.585938 189.527344 C 31.007812 189.527344 32.097656 188.683594 32.851562 186.992188 C 33.601562 185.304688 33.972656 182.019531 33.972656 177.140625 L 33.972656 84.5625 L 59.765625 77.46875 Z M 59.765625 164.527344"/><path fill="#000" fill-opacity="1" fill-rule="nonzero" d="M 96.496094 79.945312 L 96.496094 139.523438 C 96.496094 141.175781 96.8125 142.734375 97.453125 144.195312 C 98.089844 145.660156 98.972656 146.921875 100.097656 147.972656 C 101.226562 149.023438 102.539062 149.867188 104.039062 150.503906 C 105.542969 151.144531 107.15625 151.460938 108.886719 151.460938 C 110.835938 151.460938 113.054688 150.367188 115.753906 148.476562 C 120.03125 145.480469 122.625 143.421875 122.625 140.984375 C 122.625 140.402344 122.625 79.945312 122.625 79.945312 L 148.300781 79.945312 L 148.300781 164.527344 L 122.625 164.527344 L 122.625 156.640625 C 119.246094 159.496094 115.640625 161.78125 111.8125 163.511719 C 107.984375 165.238281 104.265625 166.101562 100.664062 166.101562 C 96.460938 166.101562 92.550781 165.40625 88.949219 164.015625 C 85.34375 162.628906 82.191406 160.730469 79.492188 158.332031 C 76.785156 155.929688 74.667969 153.113281 73.125 149.882812 C 71.585938 146.65625 70.816406 143.199219 70.816406 139.523438 L 70.816406 79.945312 Z M 96.496094 79.945312"/><path fill="#000" fill-opacity="1" fill-rule="nonzero" d="M 184.3125 164.527344 L 158.746094 164.527344 L 158.746094 45.933594 L 184.3125 38.839844 Z M 184.3125 164.527344"/><path fill="#389826" fill-opacity="1" fill-rule="nonzero" d="M 247.492188 19.429688 C 247.492188 29.054688 239.6875 36.863281 230.058594 36.863281 C 220.425781 36.863281 212.625 29.054688 212.625 19.429688 C 212.625 9.800781 220.425781 1.992188 230.058594 1.992188 C 239.6875 1.992188 247.492188 9.800781 247.492188 19.429688"/><path fill="#9558B2" fill-opacity="1" fill-rule="nonzero" d="M 268.433594 55.710938 C 268.433594 65.34375 260.628906 73.144531 251 73.144531 C 241.371094 73.144531 233.566406 65.34375 233.566406 55.710938 C 233.566406 46.082031 241.371094 38.277344 251 38.277344 C 260.628906 38.277344 268.433594 46.082031 268.433594 55.710938"/><path fill="#CB3C33" fill-opacity="1" fill-rule="nonzero" d="M 226.542969 55.710938 C 226.542969 65.34375 218.738281 73.144531 209.109375 73.144531 C 199.476562 73.144531 191.675781 65.34375 191.675781 55.710938 C 191.675781 46.082031 199.476562 38.277344 209.109375 38.277344 C 218.738281 38.277344 226.542969 46.082031 226.542969 55.710938"/><path fill="#000" fill-opacity="1" fill-rule="nonzero" d="M 194.988281 84.5625 L 220.667969 77.46875 L 220.667969 164.527344 L 194.988281 164.527344 Z M 194.988281 84.5625"/><path fill="#000" fill-opacity="1" fill-rule="nonzero" d="M 274.320312 120.828125 C 271.839844 121.882812 269.339844 123.097656 266.828125 124.488281 C 264.3125 125.878906 262.019531 127.398438 259.957031 129.050781 C 257.890625 130.699219 256.222656 132.464844 254.945312 134.34375 C 253.667969 136.21875 253.03125 138.171875 253.03125 140.199219 C 253.03125 141.777344 253.238281 143.296875 253.648438 144.761719 C 254.0625 146.222656 254.644531 147.480469 255.398438 148.53125 C 256.148438 149.582031 256.972656 150.425781 257.875 151.066406 C 258.773438 151.703125 259.75 152.023438 260.800781 152.023438 C 262.902344 152.023438 265.023438 151.382812 267.164062 150.109375 C 269.304688 148.832031 271.6875 147.21875 274.320312 145.265625 Z M 300.105469 164.527344 L 274.320312 164.527344 L 274.320312 157.765625 C 272.890625 158.96875 271.5 160.078125 270.152344 161.089844 C 268.800781 162.101562 267.277344 162.984375 265.589844 163.734375 C 263.898438 164.488281 262.003906 165.066406 259.898438 165.484375 C 257.796875 165.894531 255.320312 166.101562 252.46875 166.101562 C 248.5625 166.101562 245.054688 165.539062 241.9375 164.414062 C 238.820312 163.285156 236.175781 161.746094 234 159.792969 C 231.820312 157.84375 230.152344 155.53125 228.988281 152.867188 C 227.824219 150.203125 227.242188 147.292969 227.242188 144.140625 C 227.242188 140.910156 227.859375 137.984375 229.101562 135.355469 C 230.339844 132.726562 232.027344 130.363281 234.167969 128.257812 C 236.308594 126.15625 238.800781 124.28125 241.65625 122.628906 C 244.507812 120.976562 247.570312 119.457031 250.835938 118.066406 C 254.101562 116.679688 257.5 115.40625 261.027344 114.242188 C 264.554688 113.078125 268.050781 111.96875 271.5 110.917969 L 274.320312 110.242188 L 274.320312 101.910156 C 274.320312 96.503906 273.285156 92.671875 271.21875 90.421875 C 269.152344 88.167969 266.394531 87.042969 262.941406 87.042969 C 258.886719 87.042969 256.070312 88.019531 254.492188 89.96875 C 252.917969 91.921875 252.128906 94.285156 252.128906 97.0625 C 252.128906 98.640625 251.960938 100.179688 251.621094 101.683594 C 251.289062 103.183594 250.703125 104.496094 249.878906 105.625 C 249.054688 106.75 247.871094 107.652344 246.328125 108.328125 C 244.792969 109.003906 242.859375 109.34375 240.53125 109.34375 C 236.925781 109.34375 234 108.308594 231.746094 106.242188 C 229.492188 104.175781 228.367188 101.570312 228.367188 98.414062 C 228.367188 95.488281 229.363281 92.765625 231.351562 90.253906 C 233.34375 87.734375 236.023438 85.574219 239.40625 83.777344 C 242.785156 81.972656 246.6875 80.546875 251.117188 79.496094 C 255.542969 78.445312 260.238281 77.921875 265.191406 77.921875 C 271.273438 77.921875 276.511719 78.464844 280.90625 79.550781 C 285.296875 80.640625 288.921875 82.199219 291.773438 84.226562 C 294.625 86.253906 296.726562 88.691406 298.078125 91.546875 C 299.429688 94.398438 300.105469 97.59375 300.105469 101.117188 Z M 300.105469 164.527344"/></svg>