<?xml version="1.0" encoding="UTF-8"?>
<svg xmlns="http://www.w3.org/2000/svg" xmlns:xlink="http://www.w3.org/1999/xlink" width="633.63pt" height="200.251pt" viewBox="0 0 633.63 200.251">
<defs>
<clipPath id="clip-0">
<path clip-rule="nonzero" d="M 0.00390625 0 L 633.628906 0 L 633.628906 200.25 L 0.00390625 200.25 Z M 0.00390625 0 "/>
</clipPath>
<clipPath id="clip-1">
<path clip-rule="nonzero" d="M 0.00390625 0 L 628 0 L 628 200.25 L 0.00390625 200.25 Z M 0.00390625 0 "/>
</clipPath>
</defs>
<g clip-path="url(#clip-0)">
<path fill-rule="nonzero" fill="rgb(79.606628%, 23.527527%, 19.999695%)" fill-opacity="0.6" stroke-width="0.3985" stroke-linecap="butt" stroke-linejoin="miter" stroke="rgb(100%, 100%, 100%)" stroke-opacity="0.6" stroke-miterlimit="10" d="M 592.930313 -6.814656 L 623.715469 -18.592 L 590.121719 -33.713094 M 624.074844 -67.728719 L 595.738906 -51.287312 L 624.6725 -20.084187 M 592.332656 -5.381062 L 568.063125 -6.217 L 643.024063 6.337688 M 579.539688 -66.650594 L 600.64125 -79.084187 L 573.621719 -81.236531 M 569.317031 -123.021687 L 577.688125 -156.43575 L 550.965469 -138.62325 M 571.1725 -42.799031 L 578.402969 -65.158406 L 540.445938 -64.021687 M 565.969375 -200.674031 L 562.086563 -180.767781 L 596.875625 -191.287312 M 549.949844 -140.955281 L 560.590469 -179.572469 L 537.098281 -188.537312 M 536.680313 -190.330281 L 563.938125 -201.447469 L 533.332656 -214.7795 M 544.090469 -10.580281 L 570.156875 -41.18575 L 527.055313 -40.646687 M 539.070938 -65.455281 L 571.231094 -81.834187 L 533.988906 -96.478719 M 529.26625 -122.302937 L 548.574844 -138.326375 L 520.418594 -143.822469 M 525.738906 -42.021687 L 537.277969 -63.424031 L 504.938125 -50.271687 M 520.063125 -189.494344 L 520.063125 -148.009969 L 535.363906 -188.955281 M 519.285781 -191.107625 L 531.539688 -215.017781 L 499.7975 -209.99825 M 518.508438 -114.115437 L 510.7975 -88.349812 L 532.195938 -97.674031 M 517.6725 -115.849812 L 518.805313 -143.224812 L 480.789688 -109.092 M 487.305313 -47.642781 L 477.621719 -37.420125 L 516.832656 -30.963094 M 518.867813 -7.052937 L 519.402969 -28.513875 L 489.098281 -3.705281 M 479.293594 -216.81075 L 474.930313 -192.720906 L 497.348281 -210.236531 M 487.660781 -50.392781 L 509.063125 -87.037312 L 484.254531 -100.545125 M 476.067031 -36.166219 L 446.715469 -20.384969 L 486.227188 -4.006062 M 457.2975 -210.595906 L 456.758438 -173.713094 L 473.254531 -191.345906 M 453.11 -78.666219 L 477.500625 -107.599812 L 429.258438 -107.06075 M 468.832656 -153.927937 L 445.758438 -140.416219 L 477.86 -109.990437 M 443.426406 -59.119344 L 452.215469 -77.291219 L 425.254531 -81.717 M 430.813125 -192.424031 L 453.649063 -210.533406 L 429.258438 -202.224812 M 428.125625 -108.853719 L 439.781875 -127.205281 L 409.774063 -149.982625 M 423.402969 -83.806844 L 427.285781 -107.119344 L 396.20375 -112.681844 M 399.012344 -190.869344 L 426.867813 -202.584187 L 388.434219 -214.838094 M 408.457656 -153.447469 L 429.320938 -190.631062 L 399.430313 -189.494344 M 416.707656 -0.775594 L 418.918594 -35.150594 L 396.742813 -6.87325 M 408.875625 -58.400594 L 390.582656 -22.892781 L 418.918594 -37.299031 M 394.590469 -115.490437 L 407.320938 -150.877156 L 386.340469 -143.705281 M 388.910781 -20.564656 L 359.500625 4.482219 L 394.887344 -6.93575 M 383.711563 -61.572469 L 407.621719 -60.43575 L 380.363906 -96.002156 M 382.813125 -59.537312 L 355.074844 -24.447469 L 388.492813 -22.177937 M 365.598281 -189.076375 L 386.219375 -215.256062 L 360.039688 -216.931844 M 358.902969 -82.072469 L 354.656875 -71.494344 L 380.602188 -62.525594 M 356.629531 -125.888875 L 382.934219 -143.107625 L 353.402969 -138.802937 M 353.281875 -25.045125 L 353.281875 -67.549031 L 341.445938 -33.115437 M 329.61 -181.244344 L 322.914688 -151.6545 L 351.430313 -140.474812 M 323.934219 -62.345906 L 352.26625 -71.256062 L 321.660781 -86.259969 M 322.7975 -128.463094 L 321.660781 -88.830281 L 355.074844 -124.455281 M 353.461563 -22.416219 L 326.684219 9.384563 L 356.274063 5.497844 M 306.059219 -115.252156 L 289.20375 -80.400594 L 320.106094 -87.693562 M 306.36 -117.580281 L 321.242813 -129.177937 L 294.762344 -152.37325 M 301.098281 -63.302937 L 291.711563 -29.052937 L 322.14125 -61.092 M 291.113906 -25.4045 L 291.113906 -4.006062 L 322.914688 8.607219 M 957.809219 -21.877156 L 965.164688 -56.849812 L 930.789688 -37.658406 M 923.676406 -11.357625 L 894.32875 6.036906 L 964.504531 -5.381062 M 919.852188 -53.381062 L 960.320938 -96.181844 L 916.383438 -93.908406 M 919.313125 -218.845906 L 917.57875 -170.724812 L 959.961563 -190.81075 M 915.785781 -95.525594 L 926.785781 -112.021687 L 898.692031 -119.732625 M 919.195938 -51.228719 L 890.320938 -33.236531 L 928.461563 -38.138875 M 897.676406 -121.767781 L 935.332656 -146.513875 L 892.594375 -147.052937 M 896.598281 -82.134969 L 870.832656 -53.619344 L 906.461563 -68.982625 M 892.473281 -188.838094 L 892.473281 -148.963094 L 916.086563 -169.767781 M 891.695938 -191.049031 L 901.082656 -207.607625 L 865.156875 -214.7795 M 878.664688 -158.947469 L 890.680313 -188.717 L 878.125625 -181.424031 M 864.199844 -115.490437 L 877.231094 -155.181844 L 842.680313 -145.556844 M 868.981094 -50.752156 L 864.559219 -23.134969 L 886.676406 -32.517781 M 857.024063 -83.627156 L 836.820938 -56.670125 L 867.727188 -52.724812 M 863.301406 -21.580281 L 845.309219 -22.6545 L 868.20375 8.368938 M 848.059219 -107.537312 L 836.64125 -91.220906 L 856.188125 -85.7795 M 841.246719 -147.232625 L 845.727188 -185.009969 L 816.375625 -174.849812 M 827.676406 10.400188 L 842.559219 -21.580281 L 812.731094 -1.134969 M 817.274063 -114.232625 L 800.418594 -79.322469 L 834.727188 -91.158406 M 815.602188 -177.06075 L 829.469375 -206.5295 L 808.367813 -217.111531 M 778.121719 -81.236531 L 775.551406 -71.431844 L 796.649063 -78.127156 M 775.309219 -69.638875 L 774.176406 -22.474812 L 805.438125 -56.549031 M 775.789688 -8.24825 L 804.481094 -31.084187 L 774.176406 -20.443562 M 775.250625 -150.580281 L 770.168594 -116.146687 L 811.414688 -147.232625 M 774.176406 -151.892781 L 778.598281 -187.162312 L 756.000625 -154.705281 M 769.871719 -199.416219 L 750.684219 -182.381062 L 778.36 -189.853719 M 769.930313 -200.912312 L 802.926406 -216.631062 L 756.899063 -207.189656 M 752.356094 -20.62325 L 743.988906 7.771281 L 774.055313 -7.291219 M 769.035781 -113.576375 L 749.485 -90.084187 L 776.863906 -82.791219 M 750.262344 -116.506062 L 754.207656 -152.431844 L 718.281875 -110.884969 M 747.992813 -180.287312 L 708.000625 -161.158406 L 754.149063 -154.943562 M 748.051406 -182.259969 L 754.207656 -206.947469 L 714.399063 -214.7795 M 746.676406 -70.537312 L 747.754531 -89.127156 L 721.512344 -90.205281 M 709.914688 5.079875 L 720.074844 -33.955281 L 688.395156 -30.545125 M 706.746719 -189.256062 L 711.707656 -214.599812 L 687.438125 -200.252156 M 705.551406 -159.963094 L 686.602188 -152.732625 L 715.594375 -112.619344 M 705.430313 -162.115437 L 706.508438 -187.342 L 687.856094 -178.552937 M 687.856094 -96.900594 L 683.313125 -48.478719 L 717.504531 -53.021687 M 685.0475 -153.568562 L 686.184219 -177.420125 L 652.289688 -150.759969 M 685.645156 -199.357625 L 659.820938 -190.568562 L 686.184219 -179.572469 M 682.418594 -46.564656 L 662.988906 -23.37325 L 686.719375 -31.443562 M 662.570938 -83.927937 L 685.883438 -98.392781 L 649.777969 -106.701375 M 662.867813 8.548625 L 675.840469 -7.174031 L 661.793594 -20.681844 M 662.512344 -81.537312 L 654.082656 -49.615437 L 681.520156 -48.478719 M 637.762344 -101.502156 L 647.805313 -107.838094 L 636.207656 -128.939656 M 626.824844 -187.220906 L 620.606094 -145.439656 L 649.418594 -150.517781 M 637.524063 -99.5295 L 625.746719 -69.818562 L 661.074844 -83.267781 M 632.680313 -2.689656 L 658.9225 -21.2795 L 626.106094 -17.994344 M 626.942031 -189.552937 L 655.875625 -191.166219 L 622.57875 -207.545125 M 620.129531 -143.705281 L 610.863906 -123.56075 L 634.235 -131.689656 M 602.195938 -80.939656 L 609.008438 -121.947469 L 570.871719 -121.408406 M 601.2975 -149.025594 L 625.449844 -188.357625 L 599.567031 -190.631062 " transform="matrix(1, 0, 0, -1, -304.86, -8.967)"/>
<path fill-rule="nonzero" fill="rgb(58.428955%, 34.510803%, 69.802856%)" fill-opacity="0.6" stroke-width="0.3985" stroke-linecap="butt" stroke-linejoin="miter" stroke="rgb(100%, 100%, 100%)" stroke-opacity="0.6" stroke-miterlimit="10" d="M 595.024063 -50.271687 L 590.121719 -35.0295 L 622.817031 -20.322469 M 579.539688 -64.677937 L 572.426406 -42.861531 L 593.707656 -51.588094 M 578.582656 -158.888875 L 597.652969 -190.271687 L 562.324844 -179.631062 M 579.063125 -156.974812 L 570.692031 -123.56075 L 599.684219 -146.931844 M 569.137344 -120.869344 L 534.469375 -97.556844 L 571.949844 -82.791219 M 532.735 -96.599812 L 511.035781 -87.1545 L 537.754531 -65.994344 M 526.039688 -39.990437 L 520.777969 -30.009969 L 541.762344 -12.193562 M 528.61 -120.392781 L 519.223281 -115.189656 L 532.254531 -99.5295 M 502.785781 -50.752156 L 508.70375 -84.107625 L 488.258438 -49.197469 M 483.777969 -102.396687 L 512.410781 -113.756062 L 479.832656 -107.838094 M 487.305313 -2.392781 L 464.76625 3.947063 L 506.371719 -4.541219 M 479.235 -109.334187 L 518.207656 -144.302937 L 470.027969 -154.045125 M 468.832656 -156.318562 L 473.195938 -189.494344 L 456.875625 -172.099812 M 445.879531 -21.2795 L 475.227188 -37.06075 L 444.20375 -56.849812 M 455.500625 -173.353719 L 456.039688 -210.955281 L 431.352188 -191.287312 M 453.289688 -76.752156 L 444.383438 -58.400594 L 484.973281 -49.494344 M 445.039688 -139.400594 L 441.274063 -127.62325 L 475.469375 -110.5295 M 444.863906 -19.24825 L 418.621719 -0.299031 L 448.207656 6.935344 M 423.879531 -81.474812 L 409.95375 -60.314656 L 442.231094 -58.642781 M 379.586563 -98.931844 L 393.395156 -113.2795 L 358.067031 -123.799031 M 365.418594 -185.967 L 353.524063 -140.056844 L 384.727188 -144.599812 M 353.582656 -71.970906 L 357.824844 -82.611531 L 324.352188 -86.318562 M 329.551406 -184.052937 L 357.707656 -216.693562 L 319.449844 -209.400594 M 322.7975 -150.338094 L 322.7975 -129.955281 L 350.95375 -139.342 M 341.027969 -31.982625 L 326.86 7.173625 L 352.985 -23.849812 M 322.020156 -153.088094 L 328.656875 -182.49825 L 305.938125 -187.521687 M 323.336563 -60.674031 L 292.129531 -27.795125 L 339.774063 -33.474812 M 961.336563 -95.463094 L 920.926406 -52.783406 L 965.281875 -58.463094 M 937.188125 -148.068562 L 959.781875 -189.37325 L 917.938125 -169.588094 M 929.95375 -36.763875 L 924.395156 -12.791219 L 956.676406 -21.162312 M 907.477188 -67.607625 L 889.305313 -33.955281 L 918.535781 -52.127156 M 907.180313 -69.99825 L 914.711563 -93.072469 L 897.496719 -82.849812 M 901.918594 -206.592 L 892.652969 -190.209187 L 915.606094 -171.619344 M 887.152969 -31.384969 L 864.7975 -21.877156 L 890.500625 5.497844 M 878.426406 -155.12325 L 865.934219 -117.045125 L 890.981094 -147.5295 M 864.738906 -113.037312 L 857.981094 -85.482625 L 895.102188 -83.806844 M 863.121719 -214.420125 L 847.402969 -186.384969 L 876.574844 -182.439656 M 848.715469 -109.572469 L 863.4225 -114.474812 L 842.738906 -143.345906 M 844.352188 -24.568562 L 867.367813 -51.5295 L 836.461563 -55.474812 M 817.574844 -116.802937 L 840.469375 -145.318562 L 813.629531 -146.990437 M 812.192031 -2.213094 L 842.617813 -23.013875 L 808.309219 -32.041219 M 812.430313 -148.306844 L 814.645156 -174.072469 L 776.567031 -151.713094 M 799.043594 -79.443562 L 816.137344 -114.771687 L 770.527969 -114.174031 M 808.129531 -34.072469 L 834.070938 -55.592 L 807.051406 -56.131062 M 798.863906 -77.592 L 776.445938 -70.478719 L 805.438125 -57.924031 M 779.496719 -190.388875 L 804.781875 -216.213094 L 770.887344 -200.072469 M 772.918594 -21.521687 L 774.055313 -67.666219 L 752.95375 -22.056844 M 751.340469 -115.31075 L 749.188125 -91.517781 L 768.137344 -114.232625 M 748.949844 -88.5295 L 747.871719 -69.939656 L 772.981094 -71.013875 M 720.254531 -91.459187 L 746.258438 -90.384969 L 717.567031 -108.795125 M 718.043594 -51.5295 L 689.707656 -31.920125 L 720.254531 -35.209187 M 721.094375 -32.99825 L 710.930313 6.036906 L 742.01625 8.310344 M 717.985 -54.455281 L 719.121719 -90.384969 L 688.813125 -97.674031 M 707.762344 -187.580281 L 706.625625 -161.756062 L 746.496719 -180.826375 M 690.965469 -111.18575 L 715.531875 -110.646687 L 686.481094 -150.877156 M 687.020156 -99.349812 L 689.649063 -109.931844 L 652.586563 -107.299031 M 676.856094 -6.455281 L 663.707656 9.443156 L 707.582656 6.158 M 676.500625 -8.189656 L 686.363906 -30.068562 L 662.270156 -21.877156 M 658.625625 -189.853719 L 651.274063 -151.474812 L 685.70375 -178.552937 M 653.067031 -47.822469 L 626.762344 -19.24825 L 660.36 -22.595906 M 653.004531 -49.974812 L 661.434219 -82.072469 L 625.926406 -68.564656 M 635.371719 -132.345906 L 648.942031 -149.142781 L 621.26625 -144.244344 M 632.324844 -1.197469 L 602.01625 -4.365437 L 654.918594 7.829875 M 619.410781 -145.318562 L 625.449844 -186.088094 L 601.777969 -147.5295 M 621.324844 -207.607625 L 600.582656 -191.763875 L 625.688125 -189.552937 M 610.145156 -121.467 L 603.332656 -80.697469 L 636.149063 -100.486531 M 602.914688 -78.666219 L 595.738906 -52.662312 L 623.414688 -68.68575 M 598.61 -192.006062 L 607.51625 -215.974812 L 567.406875 -201.509969 " transform="matrix(1, 0, 0, -1, -304.86, -8.967)"/>
<path fill-rule="nonzero" fill="rgb(21.961975%, 59.606934%, 14.901733%)" fill-opacity="0.6" stroke-width="0.3985" stroke-linecap="butt" stroke-linejoin="miter" stroke="rgb(100%, 100%, 100%)" stroke-opacity="0.6" stroke-miterlimit="10" d="M 594.485 -52.482625 L 601.598281 -78.189656 L 580.258438 -65.576375 M 573.262344 -82.37325 L 601.2975 -80.099812 L 570.45375 -119.912312 M 565.551406 -201.986531 L 605.004531 -216.213094 L 535.426406 -215.138875 M 589.043594 -35.447469 L 593.82875 -50.334187 L 573.082656 -41.845906 M 588.926406 -33.416219 L 560.410781 -7.713094 L 591.735 -6.576375 M 572.367813 -81.056844 L 541.223281 -65.217 L 578.344375 -66.291219 M 558.918594 -6.576375 L 457.117813 7.232219 L 654.680313 9.443156 M 558.496719 -7.830281 L 569.735 -38.916219 L 545.0475 -9.982625 M 538.832656 -63.662312 L 527.055313 -41.845906 L 569.617813 -42.381062 M 536.14125 -187.521687 L 520.301406 -145.080281 L 549.1725 -139.400594 M 533.629531 -98.451375 L 567.645156 -121.345906 L 529.684219 -120.81075 M 532.254531 -213.822469 L 520.418594 -190.631062 L 535.485 -190.092 M 520.598281 -28.634969 L 520.063125 -7.232625 L 542.539688 -9.982625 M 519.942031 -30.963094 L 525.20375 -40.947469 L 505.238906 -48.838094 M 519.942031 -141.912312 L 518.926406 -116.447469 L 528.309219 -121.646687 M 518.867813 -145.377156 L 518.867813 -188.955281 L 470.746719 -155.12325 M 487.485 -4.006062 L 518.625625 -29.5295 L 477.262344 -36.345906 M 509.539688 -88.170125 L 517.371719 -114.353719 L 485.031875 -101.502156 M 498.481094 -209.638875 L 475.707656 -191.826375 L 517.969375 -190.689656 M 478.754531 -107.240437 L 457.2975 -81.775594 L 482.762344 -101.740437 M 449.406875 6.993938 L 485.332656 -3.107625 L 446.059219 -19.369344 M 476.305313 -37.838094 L 485.988906 -48.06075 L 446.656875 -56.670125 M 456.277969 -170.9045 L 445.879531 -141.791219 L 468.414688 -154.943562 M 440.258438 -128.342 L 444.024063 -140.119344 L 411.387344 -150.2795 M 430.574844 -190.388875 L 409.652969 -153.0295 L 454.902969 -172.2795 M 428.602188 -203.302937 L 453.590469 -211.791219 L 391.957656 -214.959187 M 428.363906 -106.224812 L 424.477188 -82.970906 L 451.555313 -78.549031 M 420.1725 -35.986531 L 417.902969 -1.197469 L 444.262344 -20.263875 M 419.817031 -38.017781 L 441.992813 -57.447469 L 409.774063 -59.119344 M 408.817031 -60.795125 L 422.863906 -82.193562 L 381.258438 -96.838094 M 408.336563 -150.2795 L 395.305313 -114.115437 L 426.988906 -108.43575 M 398.652969 -187.759969 L 386.461563 -144.959187 L 407.559219 -152.193562 M 395.844375 -7.713094 L 417.485 -35.267781 L 389.926406 -21.220906 M 389.449844 -23.431844 L 407.918594 -59.240437 L 383.887344 -60.37325 M 387.235 -214.658406 L 366.555313 -188.416219 L 397.817031 -190.631062 M 385.20375 -143.107625 L 357.645156 -125.115437 L 393.633438 -114.412312 M 379.106094 -96.959187 L 359.617813 -83.0295 L 382.45375 -62.467 M 355.735 -123.49825 L 322.258438 -87.752156 L 358.004531 -83.806844 M 352.504531 -140.896687 L 364.461563 -186.982625 L 330.32875 -182.439656 M 340.61 -34.252156 L 352.985 -70.177937 L 324.352188 -61.213094 M 321.602188 -130.43575 L 321.602188 -150.697469 L 295.2975 -153.447469 M 320.524063 -85.842 L 301.875625 -64.439656 L 322.738906 -62.228719 M 318.492813 -208.502156 L 305.820938 -188.658406 L 328.414688 -183.693562 M 297.031875 -200.849812 L 315.445938 -209.041219 L 263.738906 -206.470906 M 290.637344 -2.869344 L 278.320938 7.829875 L 321.781875 9.443156 M 960.738906 -191.763875 L 963.5475 -220.576375 L 920.629531 -219.443562 M 929.715469 -38.43575 L 963.012344 -56.967 L 920.449844 -51.5295 M 957.988906 -20.263875 L 926.606094 -12.134969 L 967.195938 -6.158406 M 949.559219 -112.978719 L 930.192031 -111.9045 L 960.024063 -98.275594 M 927.324844 -113.099812 L 936.289688 -145.677937 L 898.692031 -120.990437 M 923.14125 -12.853719 L 928.758438 -36.943562 L 889.543594 -31.920125 M 916.504531 -172.697469 L 918.176406 -218.783406 L 902.817031 -207.787312 M 915.426406 -91.459187 L 908.074844 -68.861531 L 918.598281 -54.158406 M 897.852188 -118.896687 L 897.317031 -84.166219 L 914.949844 -94.627156 M 891.277969 -148.724812 L 891.277969 -187.041219 L 878.844375 -156.318562 M 887.570938 -33.295125 L 906.102188 -67.549031 L 869.637344 -51.826375 M 869.637344 10.103313 L 890.082656 6.81425 L 864.676406 -20.205281 M 868.801406 -53.142781 L 895.344375 -82.552937 L 858.043594 -84.224812 M 891.51625 -146.275594 L 865.871719 -115.072469 L 896.539688 -121.228719 M 863.301406 -22.775594 L 867.664688 -50.033406 L 845.309219 -23.849812 M 857.086563 -86.916219 L 863.543594 -113.2795 L 849.01625 -108.43575 M 846.9225 -184.650594 L 842.379531 -146.693562 L 876.992813 -156.318562 M 844.1725 -22.119344 L 828.871719 10.759563 L 868.024063 10.2205 M 836.281875 -90.084187 L 836.281875 -57.982625 L 856.188125 -84.525594 M 835.684219 -91.877156 L 847.223281 -108.377156 L 818.590469 -114.412312 M 835.32875 -55.115437 L 808.844375 -33.177937 L 843.219375 -24.150594 M 830.426406 -205.693562 L 816.496719 -176.162312 L 845.430313 -186.205281 M 830.367813 -207.467 L 859.324844 -215.365437 L 810.363906 -217.470906 M 815.840469 -173.713094 L 813.629531 -148.189656 L 840.227188 -146.513875 M 812.492813 -146.572469 L 771.125625 -115.427937 L 816.438125 -115.967 M 807.231094 -216.931844 L 780.570938 -189.732625 L 814.582656 -176.103719 M 807.113906 -31.740437 L 776.684219 -7.533406 L 810.996719 -1.912312 M 806.633438 -57.982625 L 833.774063 -89.607625 L 799.938125 -77.951375 M 778.180313 -82.431844 L 797.727188 -79.146687 L 770.527969 -112.322469 M 775.371719 -6.513875 L 745.4225 8.427531 L 824.090469 10.638469 M 774.352188 -71.552937 L 776.985 -81.474812 L 751.340469 -88.291219 M 755.227188 -155.658406 L 778.059219 -188.478719 L 749.129531 -180.705281 M 769.094375 -117.224812 L 774.055313 -150.759969 L 755.883438 -153.506062 M 772.981094 -20.384969 L 754.207656 -20.920125 L 774.531875 -8.427937 M 754.985 -208.025594 L 800.836563 -217.408406 L 717.9225 -215.318562 M 747.934219 -90.681844 L 750.145156 -115.252156 L 718.344375 -109.689656 M 746.7975 -67.787312 L 721.867813 -34.970906 L 751.340469 -22.537312 M 717.086563 -111.365437 L 753.852188 -153.865437 L 706.746719 -160.201375 M 720.254531 -89.666219 L 719.121719 -53.681844 L 746.137344 -69.400594 M 712.902969 -214.599812 L 707.820938 -188.775594 L 746.559219 -182.021687 M 690.906875 -109.990437 L 688.336563 -99.588094 L 713.738906 -109.451375 M 687.7975 -32.041219 L 716.129531 -51.646687 L 683.434219 -47.283406 M 687.496719 -29.830281 L 677.45375 -7.533406 L 708.660781 5.322063 M 686.242813 -200.970906 L 710.39125 -215.256062 L 667.055313 -216.334187 M 687.379531 -177.420125 L 686.301406 -153.927937 L 704.89125 -161.041219 M 687.438125 -179.689656 L 705.910781 -188.357625 L 686.899063 -199.236531 M 682.238906 -49.736531 L 686.719375 -97.49825 L 663.11 -82.912312 M 685.106094 -152.431844 L 651.692031 -149.62325 L 689.590469 -112.259969 M 661.375625 -23.37325 L 681.399063 -47.283406 L 654.14125 -48.420125 M 660.598281 -20.982625 L 633.699844 -1.912312 L 661.735 9.267375 M 657.789688 -191.525594 L 664.543594 -216.213094 L 623.594375 -208.384969 M 650.07875 -151.6545 L 657.430313 -190.033406 L 627.539688 -188.357625 M 648.106094 -109.752156 L 649.719375 -148.24825 L 636.149063 -131.451375 M 625.867813 -20.025594 L 652.469375 -48.896687 L 625.270156 -67.607625 M 624.969375 -17.752156 L 594.961563 -6.275594 L 631.485 -2.451375 M 624.371719 -69.580281 L 636.027969 -98.990437 L 603.809219 -79.564656 M 609.785781 -124.095906 L 618.992813 -144.12325 L 601.656875 -146.275594 M 608.832656 -216.033406 L 600.223281 -192.959187 L 620.606094 -208.502156 M 598.430313 -189.256062 L 579.481094 -158.049031 L 600.102188 -148.009969 " transform="matrix(1, 0, 0, -1, -304.86, -8.967)"/>
<path fill-rule="nonzero" fill="rgb(25.097656%, 38.822937%, 84.70459%)" fill-opacity="0.6" stroke-width="0.3985" stroke-linecap="butt" stroke-linejoin="miter" stroke="rgb(100%, 100%, 100%)" stroke-opacity="0.6" stroke-miterlimit="10" d="M 571.82875 -41.068562 L 560.293594 -9.205281 L 588.26625 -34.431844 M 561.5475 -178.615437 L 550.906875 -140.056844 L 577.746719 -157.931844 M 560.82875 -180.767781 L 564.656875 -200.494344 L 537.817031 -189.552937 M 549.949844 -137.9045 L 530.70375 -121.947469 L 568.063125 -122.482625 M 519.524063 -5.978719 L 466.86 4.7205 L 548.934219 -6.455281 M 510.317031 -86.197469 L 504.102188 -51.170125 L 537.399063 -64.740437 M 503.086563 -49.556844 L 489.098281 -48.002156 L 517.551406 -31.982625 M 483.059219 -100.486531 L 454.008438 -77.709187 L 486.465469 -49.795125 M 474.570938 -190.689656 L 470.027969 -156.076375 L 517.6725 -189.552937 M 473.676406 -192.662312 L 478.039688 -216.81075 L 457.715469 -211.849812 M 444.383438 -141.193562 L 455.082656 -171.021687 L 410.012344 -151.892781 M 443.008438 -56.728719 L 420.594375 -37.12325 L 444.684219 -21.459187 M 440.7975 -126.549031 L 429.14125 -108.197469 L 476.363906 -108.736531 M 428.125625 -201.806844 L 401.942031 -190.81075 L 429.680313 -191.884969 M 395.723281 -5.978719 L 362.367813 4.783 L 414.254531 -0.357625 M 394.527969 -112.740437 L 380.660781 -98.334187 L 421.727188 -83.927937 M 385.442031 -145.736531 L 397.938125 -189.37325 L 366.195938 -187.103719 M 358.902969 -216.275594 L 330.805313 -183.693562 L 364.461563 -188.177937 M 359.14125 -84.166219 L 378.629531 -98.095906 L 356.871719 -123.201375 M 357.348281 4.783 L 387.656875 -21.041219 L 354.539688 -23.314656 M 354.477188 -70.299031 L 354.477188 -25.642781 L 382.156875 -60.674031 M 352.26625 -138.502156 L 324.887344 -129.357625 L 355.496719 -125.592 M 324.949844 9.025188 L 339.832656 -32.158406 L 291.774063 -26.420125 M 320.465469 -89.607625 L 321.543594 -127.861531 L 306.777969 -116.384969 M 304.9225 -186.68575 L 294.281875 -154.763875 L 321.184219 -151.955281 M 304.863906 -189.43575 L 317.059219 -208.502156 L 297.988906 -200.013875 M 300.680313 -64.916219 L 319.32875 -86.318562 L 289.20375 -79.205281 M 927.981094 -111.603719 L 916.981094 -95.103719 L 959.363906 -97.318562 M 916.9225 -168.931844 L 893.430313 -148.24825 L 935.930313 -147.709187 M 937.367813 -145.138875 L 928.520156 -113.037312 L 949.024063 -114.174031 M 901.918594 -208.681844 L 916.684219 -219.263875 L 867.5475 -215.556844 M 896.059219 -84.467 L 896.598281 -120.033406 L 865.574844 -113.814656 M 891.817031 6.158 L 922.4225 -11.955281 L 888.469375 -31.205281 M 877.82875 -182.56075 L 890.86 -190.150594 L 864.738906 -213.525594 M 876.930313 -181.18575 L 848.180313 -185.068562 L 877.469375 -157.451375 M 846.387344 -186.982625 L 861.988906 -214.838094 L 831.320938 -206.470906 M 841.305313 -144.482625 L 818.231094 -115.787312 L 847.520156 -109.572469 M 835.086563 -56.787312 L 835.086563 -89.24825 L 807.649063 -57.384969 M 811.535781 -0.658406 L 781.887344 -5.49825 L 824.625625 9.56425 M 805.856094 -55.353719 L 775.551406 -22.295125 L 806.934219 -33.295125 M 779.973281 -188.658406 L 775.430313 -152.37325 L 813.985 -175.0295 M 755.285781 -151.595906 L 751.457656 -116.506062 L 768.434219 -115.427937 M 755.344375 -206.592 L 749.426406 -182.857625 L 768.856094 -200.134969 M 752.356094 -23.732625 L 773.754531 -69.881062 L 747.871719 -68.744344 M 742.910781 7.353313 L 751.281875 -21.162312 L 722.168594 -33.474812 M 721.332656 -36.166219 L 744.942031 -67.31075 L 719.180313 -52.306844 M 716.250625 -109.1545 L 689.410781 -98.752156 L 718.942031 -91.638875 M 665.680313 -215.974812 L 659.043594 -191.646687 L 685.0475 -200.494344 M 650.914688 -148.666219 L 649.180313 -108.256062 L 689.051406 -111.127156 M 648.344375 -106.763875 L 638.301406 -100.424031 L 660.539688 -85.064656 M 634.895156 -130.674031 L 610.981094 -122.302937 L 636.567031 -101.681844 M 600.461563 -146.037312 L 571.352188 -122.545125 L 608.832656 -123.080281 " transform="matrix(1, 0, 0, -1, -304.86, -8.967)"/>
</g>
<g clip-path="url(#clip-1)">
<path fill-rule="nonzero" fill="rgb(100%, 100%, 100%)" fill-opacity="0.5" stroke-width="0.3985" stroke-linecap="butt" stroke-linejoin="miter" stroke="rgb(100%, 100%, 100%)" stroke-opacity="0.5" stroke-miterlimit="10" d="M 298.887344 0.00175 L 932.524063 0.00175 L 932.524063 -215.197469 L 298.887344 -215.197469 Z M 298.887344 0.00175 " transform="matrix(1, 0, 0, -1, -304.86, -8.967)"/>
</g>
</svg>
